<?xml version="1.0" encoding="utf-8"?>
<!-- Generator: Adobe Illustrator 19.0.0, SVG Export Plug-In . SVG Version: 6.00 Build 0)  -->
<svg version="1.1" id="Capa_1" xmlns="http://www.w3.org/2000/svg" xmlns:xlink="http://www.w3.org/1999/xlink" x="0px" y="0px"
	 viewBox="-257 205 182 72" style="enable-background:new -257 205 182 72;" xml:space="preserve">
<style type="text/css">
	.st0{fill:#5D5C60;}
	.st1{opacity:0.5;}
	.st2{fill:#88868B;}
	.st3{fill:none;stroke:#FFFFFF;stroke-width:0.25;stroke-miterlimit:10;}
	.st4{font-family:'GillSans-Light';}
	.st5{font-size:17.9606px;}
</style>
<polygon id="XMLID_10045_" class="st0" points="-220.5,234.7 -220.5,277 -208.3,277 -208.3,213.6 -222.2,224.2 "/>
<g id="XMLID_10044_" class="st1">
	
		<image style="overflow:visible;enable-background:new    ;" width="85" height="96" xlink:href="3F1210F99AEDC170.png"  transform="matrix(1 0 0 1 -257 177.594)">
	</image>
</g>
<polygon id="XMLID_10043_" class="st2" points="-244.9,277 -208.3,213.6 -220.5,213.6 -251,266.4 -251,273.5 "/>
<polygon id="XMLID_6621_" class="st3" points="-214.5,273.4 -220.6,269.9 -220.6,276.9 -214.5,273.4 -220.6,269.9 -220.6,276.9 "/>
<polygon id="XMLID_6619_" class="st3" points="-214.4,273.4 -208.3,276.9 -208.3,269.9 -214.4,273.4 -208.3,276.9 -208.3,269.9 "/>
<g id="XMLID_10_">
	<path id="XMLID_10041_" class="st2" d="M-202.9,259.2l5.2,6.2l5.2-6.2h2.7v15.7h-3.1v-11h-0.1l-4.6,5.5h-0.4l-4.6-5.5h-0.1v11h-3.1
		v-15.7H-202.9z"/>
	<path id="XMLID_10039_" class="st2" d="M-182.6,259c1.5,0,2.7,0.4,3.6,1.3c0.9,0.8,1.3,2,1.3,3.4c0,1.1-0.3,2.2-1,3.5
		c-0.7,1.3-1.8,2.9-3.5,5h5.4v2.7H-187v-0.3c1.2-1.5,2.2-2.8,3.1-3.9c0.9-1.2,1.5-2.1,2-2.9c0.5-0.8,0.8-1.4,1-2
		c0.2-0.5,0.3-1.1,0.3-1.7c0-0.7-0.2-1.3-0.7-1.8c-0.5-0.5-1-0.7-1.7-0.7c-1.2,0-2.4,0.7-3.7,2v-3.1C-185.4,259.5-184,259-182.6,259
		z"/>
	<path id="XMLID_10037_" class="st2" d="M-171,259.2v15.7h-2.9v-15.7H-171z"/>
	<text id="XMLID_6617_" transform="matrix(1 0 0 1 -166.5139 272.8749)" class="st2 st4 st5">Arquitectura</text>
</g>
</svg>
